<svg width="96" height="81" viewBox="0 0 96 81" fill="none" xmlns="http://www.w3.org/2000/svg">
<path opacity="0.3" d="M5.05078 11.2832C5.05078 11.1738 5.02539 11.0762 4.97461 10.9902C4.92773 10.9043 4.84766 10.8223 4.73438 10.7441C4.61328 10.6738 4.45508 10.6074 4.25977 10.5449C4.06445 10.4824 3.82031 10.4238 3.52734 10.3691C3.16016 10.2949 2.82422 10.2031 2.51953 10.0938C2.21875 9.98438 1.95898 9.85156 1.74023 9.69531C1.52539 9.54688 1.35742 9.37109 1.23633 9.16797C1.11523 8.96484 1.05469 8.72852 1.05469 8.45898C1.05469 8.20117 1.11523 7.95703 1.23633 7.72656C1.36133 7.49219 1.53906 7.28711 1.76953 7.11133C1.99609 6.93555 2.26953 6.79688 2.58984 6.69531C2.91406 6.59375 3.27344 6.54297 3.66797 6.54297C4.08984 6.54297 4.46875 6.5957 4.80469 6.70117C5.14062 6.80273 5.42578 6.94336 5.66016 7.12305C5.89062 7.30273 6.06836 7.51562 6.19336 7.76172C6.31836 8.00781 6.38086 8.27344 6.38086 8.55859H4.98047C4.98047 8.44141 4.95508 8.33008 4.9043 8.22461C4.85742 8.11523 4.78711 8.01758 4.69336 7.93164C4.58398 7.83008 4.44336 7.75 4.27148 7.69141C4.09961 7.62891 3.89844 7.59766 3.66797 7.59766C3.45703 7.59766 3.27148 7.62109 3.11133 7.66797C2.95508 7.71094 2.82617 7.77148 2.72461 7.84961C2.62305 7.91992 2.54688 8.00391 2.49609 8.10156C2.44531 8.19531 2.41992 8.29492 2.41992 8.40039C2.41992 8.50977 2.44141 8.60938 2.48438 8.69922C2.52734 8.78516 2.60352 8.86133 2.71289 8.92773C2.81445 8.99805 2.95508 9.0625 3.13477 9.12109C3.31836 9.17969 3.54883 9.23242 3.82617 9.2793C4.21289 9.34961 4.56641 9.43555 4.88672 9.53711C5.20703 9.63867 5.48047 9.76367 5.70703 9.91211C5.93359 10.0684 6.10938 10.252 6.23438 10.4629C6.35938 10.6738 6.42188 10.9238 6.42188 11.2129C6.42188 11.4941 6.35547 11.752 6.22266 11.9863C6.09375 12.2207 5.91016 12.4219 5.67188 12.5898C5.42969 12.7578 5.14062 12.8887 4.80469 12.9824C4.46875 13.0762 4.0957 13.123 3.68555 13.123C3.22852 13.123 2.82227 13.0625 2.4668 12.9414C2.11523 12.8203 1.82031 12.6602 1.58203 12.4609C1.33984 12.2656 1.15625 12.041 1.03125 11.7871C0.90625 11.5332 0.84375 11.2754 0.84375 11.0137H2.20312C2.21484 11.209 2.26562 11.375 2.35547 11.5117C2.44922 11.6445 2.56641 11.752 2.70703 11.834C2.84375 11.9199 3 11.9824 3.17578 12.0215C3.35156 12.0566 3.5293 12.0742 3.70898 12.0742C3.95117 12.0742 4.16211 12.0488 4.3418 11.998C4.52539 11.9473 4.67188 11.8789 4.78125 11.793C4.87109 11.7227 4.9375 11.6465 4.98047 11.5645C5.02734 11.4785 5.05078 11.3848 5.05078 11.2832ZM8.64258 13L7.41797 6.66016H8.68359L9.26953 10.5449L9.36914 11.2773L9.49805 10.5449L10.3242 6.66016H11.2441L12.0703 10.5332L12.2051 11.3008L12.3164 10.5273L12.8848 6.66016H14.1562L12.9316 13H11.7422L10.9219 9.40234L10.7754 8.61719L10.6348 9.40234L9.83203 13H8.64258ZM15.6445 6.66016H19.0078V11.8398H20.8711V13H15.6445V11.8398H17.5957V7.82617H15.6445V6.66016ZM17.4668 5.01953C17.4668 4.90625 17.4863 4.80273 17.5254 4.70898C17.5645 4.61133 17.6211 4.52734 17.6953 4.45703C17.7656 4.39062 17.8496 4.33984 17.9473 4.30469C18.0488 4.26562 18.1621 4.24609 18.2871 4.24609C18.498 4.24609 18.668 4.30078 18.7969 4.41016C18.9297 4.51562 19.0059 4.65234 19.0254 4.82031C19.0527 4.99219 19.0234 5.14258 18.9375 5.27148C18.8516 5.39648 18.7266 5.48047 18.5625 5.52344C18.4805 5.59766 18.3828 5.64648 18.2695 5.66992C18.1562 5.69336 18.0312 5.68359 17.8945 5.64062C17.7539 5.59766 17.6465 5.52148 17.5723 5.41211C17.502 5.29883 17.4668 5.16797 17.4668 5.01953ZM25.3418 5.11328V6.66016H27.7266V7.70898H25.3418V10.7383C25.3418 10.9727 25.3691 11.1699 25.4238 11.3301C25.4824 11.4863 25.5625 11.6094 25.6641 11.6992C25.7656 11.793 25.8867 11.8594 26.0273 11.8984C26.168 11.9375 26.3223 11.957 26.4902 11.957C26.6113 11.957 26.7363 11.9512 26.8652 11.9395C26.9941 11.9277 27.1191 11.9121 27.2402 11.8926C27.3574 11.877 27.4668 11.8594 27.5684 11.8398C27.6738 11.8164 27.7617 11.7969 27.832 11.7812L27.9844 12.748C27.8828 12.8105 27.7598 12.8652 27.6152 12.9121C27.4746 12.9551 27.3223 12.9922 27.1582 13.0234C26.9941 13.0547 26.8223 13.0781 26.6426 13.0938C26.4668 13.1133 26.291 13.123 26.1152 13.123C25.7949 13.123 25.5 13.0801 25.2305 12.9941C24.9648 12.9043 24.7363 12.7656 24.5449 12.5781C24.3535 12.3945 24.2031 12.1582 24.0938 11.8691C23.9883 11.5801 23.9355 11.2324 23.9355 10.8262V7.70898H22.4004V6.66016H23.9355V5.11328H25.3418ZM32.4961 11.9922C32.6719 11.9922 32.8398 11.9668 33 11.916C33.1641 11.8613 33.3086 11.7852 33.4336 11.6875C33.5547 11.5898 33.6504 11.4746 33.7207 11.3418C33.7949 11.209 33.832 11.0625 33.832 10.9023H35.1504C35.1543 11.2109 35.084 11.502 34.9395 11.7754C34.7988 12.0449 34.6074 12.2773 34.3652 12.4727C34.1191 12.6758 33.8359 12.8359 33.5156 12.9531C33.1992 13.0664 32.8652 13.123 32.5137 13.123C32.0254 13.123 31.5977 13.0391 31.2305 12.8711C30.8672 12.6992 30.5645 12.4688 30.3223 12.1797C30.0762 11.8906 29.8906 11.5547 29.7656 11.1719C29.6406 10.7852 29.5781 10.373 29.5781 9.93555V9.73047C29.5781 9.29688 29.6387 8.88672 29.7598 8.5C29.8848 8.11328 30.0703 7.77539 30.3164 7.48633C30.5625 7.19727 30.8672 6.96875 31.2305 6.80078C31.5977 6.62891 32.0234 6.54297 32.5078 6.54297C32.8906 6.54297 33.2441 6.60156 33.5684 6.71875C33.8965 6.83594 34.1777 7 34.4121 7.21094C34.6465 7.42188 34.8281 7.67383 34.957 7.9668C35.0898 8.25977 35.1543 8.58203 35.1504 8.93359H33.832C33.832 8.76172 33.7988 8.59961 33.7324 8.44727C33.6699 8.29492 33.5801 8.16211 33.4629 8.04883C33.3418 7.93555 33.1973 7.8457 33.0293 7.7793C32.8652 7.71289 32.6875 7.67969 32.4961 7.67969C32.2031 7.67969 31.959 7.74023 31.7637 7.86133C31.5723 7.97852 31.4199 8.13281 31.3066 8.32422C31.1855 8.51562 31.0996 8.73438 31.0488 8.98047C31.002 9.22656 30.9785 9.47656 30.9785 9.73047V9.93555C30.9785 10.1934 31.002 10.4473 31.0488 10.6973C31.0996 10.9434 31.1836 11.1602 31.3008 11.3477C31.4141 11.543 31.5684 11.6992 31.7637 11.8164C31.959 11.9336 32.2031 11.9922 32.4961 11.9922ZM38.3438 7.5625C38.4258 7.4375 38.5176 7.32227 38.6191 7.2168C38.7207 7.11133 38.8281 7.01953 38.9414 6.94141C39.1172 6.8125 39.3105 6.71484 39.5215 6.64844C39.7363 6.57812 39.9629 6.54297 40.2012 6.54297C40.5332 6.54297 40.8359 6.5918 41.1094 6.68945C41.3867 6.78711 41.623 6.93945 41.8184 7.14648C42.0137 7.35352 42.1641 7.61914 42.2695 7.94336C42.3789 8.26367 42.4336 8.64844 42.4336 9.09766V13H41.0332V9.08594C41.0332 8.85156 41.0039 8.64648 40.9453 8.4707C40.8906 8.29492 40.8086 8.15234 40.6992 8.04297C40.5859 7.92578 40.4473 7.83984 40.2832 7.78516C40.123 7.72656 39.9375 7.69727 39.7266 7.69727C39.5625 7.69727 39.4062 7.7168 39.2578 7.75586C39.1133 7.79492 38.9805 7.85156 38.8594 7.92578C38.7578 7.98438 38.6621 8.05469 38.5723 8.13672C38.4863 8.21875 38.4102 8.31055 38.3438 8.41211V13H36.9434V4H38.3438V7.5625ZM54.1699 5.11328V6.66016H56.5547V7.70898H54.1699V10.7383C54.1699 10.9727 54.1973 11.1699 54.252 11.3301C54.3105 11.4863 54.3906 11.6094 54.4922 11.6992C54.5938 11.793 54.7148 11.8594 54.8555 11.8984C54.9961 11.9375 55.1504 11.957 55.3184 11.957C55.4395 11.957 55.5645 11.9512 55.6934 11.9395C55.8223 11.9277 55.9473 11.9121 56.0684 11.8926C56.1855 11.877 56.2949 11.8594 56.3965 11.8398C56.502 11.8164 56.5898 11.7969 56.6602 11.7812L56.8125 12.748C56.7109 12.8105 56.5879 12.8652 56.4434 12.9121C56.3027 12.9551 56.1504 12.9922 55.9863 13.0234C55.8223 13.0547 55.6504 13.0781 55.4707 13.0938C55.2949 13.1133 55.1191 13.123 54.9434 13.123C54.623 13.123 54.3281 13.0801 54.0586 12.9941C53.793 12.9043 53.5645 12.7656 53.373 12.5781C53.1816 12.3945 53.0312 12.1582 52.9219 11.8691C52.8164 11.5801 52.7637 11.2324 52.7637 10.8262V7.70898H51.2285V6.66016H52.7637V5.11328H54.1699ZM58.3066 9.77148C58.3066 9.31055 58.373 8.88477 58.5059 8.49414C58.6387 8.09961 58.832 7.75781 59.0859 7.46875C59.3359 7.17969 59.6426 6.95312 60.0059 6.78906C60.3691 6.625 60.7832 6.54297 61.248 6.54297C61.7129 6.54297 62.127 6.625 62.4902 6.78906C62.8574 6.95312 63.168 7.17969 63.4219 7.46875C63.6719 7.75781 63.8633 8.09961 63.9961 8.49414C64.1289 8.88477 64.1953 9.31055 64.1953 9.77148V9.89453C64.1953 10.3594 64.1289 10.7871 63.9961 11.1777C63.8633 11.5684 63.6719 11.9082 63.4219 12.1973C63.1719 12.4863 62.8633 12.7129 62.4961 12.877C62.1328 13.041 61.7207 13.123 61.2598 13.123C60.7949 13.123 60.3789 13.041 60.0117 12.877C59.6445 12.7129 59.3359 12.4863 59.0859 12.1973C58.832 11.9082 58.6387 11.5684 58.5059 11.1777C58.373 10.7871 58.3066 10.3594 58.3066 9.89453V9.77148ZM59.707 9.89453C59.707 10.1797 59.7363 10.4492 59.7949 10.7031C59.8574 10.957 59.9531 11.1797 60.082 11.3711C60.207 11.5625 60.3672 11.7148 60.5625 11.8281C60.7578 11.9375 60.9902 11.9922 61.2598 11.9922C61.5215 11.9922 61.75 11.9375 61.9453 11.8281C62.1406 11.7148 62.3008 11.5625 62.4258 11.3711C62.5508 11.1797 62.6426 10.957 62.7012 10.7031C62.7637 10.4492 62.7949 10.1797 62.7949 9.89453V9.77148C62.7949 9.49414 62.7637 9.22852 62.7012 8.97461C62.6387 8.7207 62.5469 8.49805 62.4258 8.30664C62.2969 8.11523 62.1348 7.96289 61.9395 7.84961C61.748 7.73633 61.5176 7.67969 61.248 7.67969C60.9824 7.67969 60.752 7.73633 60.5566 7.84961C60.3652 7.96289 60.207 8.11523 60.082 8.30664C59.9531 8.49805 59.8574 8.7207 59.7949 8.97461C59.7363 9.22852 59.707 9.49414 59.707 9.77148V9.89453ZM1.17773 20H4.59375V27.8398H6.51562V29H1.17773V27.8398H3.18164V21.166H1.17773V20ZM8.4375 22.6602H11.8008V27.8398H13.6641V29H8.4375V27.8398H10.3887V23.8262H8.4375V22.6602ZM10.2598 21.0195C10.2598 20.9062 10.2793 20.8027 10.3184 20.709C10.3574 20.6113 10.4141 20.5273 10.4883 20.457C10.5586 20.3906 10.6426 20.3398 10.7402 20.3047C10.8418 20.2656 10.9551 20.2461 11.0801 20.2461C11.291 20.2461 11.4609 20.3008 11.5898 20.4102C11.7227 20.5156 11.7988 20.6523 11.8184 20.8203C11.8457 20.9922 11.8164 21.1426 11.7305 21.2715C11.6445 21.3965 11.5195 21.4805 11.3555 21.5234C11.2734 21.5977 11.1758 21.6465 11.0625 21.6699C10.9492 21.6934 10.8242 21.6836 10.6875 21.6406C10.5469 21.5977 10.4395 21.5215 10.3652 21.4121C10.2949 21.2988 10.2598 21.168 10.2598 21.0195ZM15.1406 25.7832C15.1406 25.3027 15.1992 24.8652 15.3164 24.4707C15.4336 24.0723 15.6035 23.7305 15.8262 23.4453C16.0488 23.1602 16.3164 22.9395 16.6289 22.7832C16.9453 22.623 17.3008 22.543 17.6953 22.543C17.9297 22.543 18.1426 22.5684 18.334 22.6191C18.5254 22.666 18.6992 22.7363 18.8555 22.8301C18.957 22.8887 19.0527 22.959 19.1426 23.041C19.2324 23.1191 19.3164 23.2051 19.3945 23.2988L19.4531 22.6602H20.7246V28.8242C20.7246 29.25 20.6543 29.627 20.5137 29.9551C20.377 30.2871 20.1836 30.5684 19.9336 30.7988C19.6797 31.0254 19.375 31.1973 19.0195 31.3145C18.668 31.4355 18.2793 31.4961 17.8535 31.4961C17.6738 31.4961 17.4766 31.4766 17.2617 31.4375C17.0469 31.3984 16.832 31.3379 16.6172 31.2559C16.4023 31.1738 16.1973 31.0664 16.002 30.9336C15.8066 30.8008 15.6387 30.6406 15.498 30.4531L16.1602 29.6035C16.2734 29.7402 16.3945 29.8574 16.5234 29.9551C16.6562 30.0566 16.791 30.1387 16.9277 30.2012C17.0645 30.2637 17.2031 30.3086 17.3438 30.3359C17.4844 30.3672 17.627 30.3828 17.7715 30.3828C18.0215 30.3828 18.2422 30.3477 18.4336 30.2773C18.6289 30.207 18.7949 30.1055 18.9316 29.9727C19.0566 29.8438 19.1523 29.6855 19.2188 29.498C19.2891 29.3105 19.3242 29.0977 19.3242 28.8594V28.4199C19.2422 28.5059 19.1562 28.5859 19.0664 28.6602C18.9805 28.7344 18.8867 28.7988 18.7852 28.8535C18.6328 28.9395 18.4648 29.0039 18.2812 29.0469C18.0977 29.0938 17.8984 29.1172 17.6836 29.1172C17.293 29.1172 16.9414 29.0371 16.6289 28.877C16.3164 28.7129 16.0488 28.4863 15.8262 28.1973C15.6074 27.9121 15.4375 27.5742 15.3164 27.1836C15.1992 26.7891 15.1406 26.3633 15.1406 25.9062V25.7832ZM16.5469 25.9062C16.5469 26.1875 16.5742 26.4531 16.6289 26.7031C16.6875 26.9531 16.7793 27.1699 16.9043 27.3535C17.0254 27.5449 17.1797 27.6953 17.3672 27.8047C17.5547 27.9102 17.7773 27.9629 18.0352 27.9629C18.1953 27.9629 18.3398 27.9453 18.4688 27.9102C18.6016 27.875 18.7207 27.8262 18.8262 27.7637C18.9316 27.6973 19.0254 27.6172 19.1074 27.5234C19.1895 27.4297 19.2617 27.3262 19.3242 27.2129V24.4355C19.2617 24.3184 19.1855 24.2129 19.0957 24.1191C19.0098 24.0254 18.9102 23.9453 18.7969 23.8789C18.6953 23.8242 18.582 23.7812 18.457 23.75C18.332 23.7148 18.1953 23.6973 18.0469 23.6973C17.7852 23.6973 17.5605 23.752 17.373 23.8613C17.1855 23.9707 17.0312 24.1211 16.9102 24.3125C16.7852 24.5039 16.6934 24.7266 16.6348 24.9805C16.5762 25.2305 16.5469 25.498 16.5469 25.7832V25.9062ZM23.9297 23.5625C24.0117 23.4375 24.1035 23.3223 24.2051 23.2168C24.3066 23.1113 24.4141 23.0195 24.5273 22.9414C24.7031 22.8125 24.8965 22.7148 25.1074 22.6484C25.3223 22.5781 25.5488 22.543 25.7871 22.543C26.1191 22.543 26.4219 22.5918 26.6953 22.6895C26.9727 22.7871 27.209 22.9395 27.4043 23.1465C27.5996 23.3535 27.75 23.6191 27.8555 23.9434C27.9648 24.2637 28.0195 24.6484 28.0195 25.0977V29H26.6191V25.0859C26.6191 24.8516 26.5898 24.6465 26.5312 24.4707C26.4766 24.2949 26.3945 24.1523 26.2852 24.043C26.1719 23.9258 26.0332 23.8398 25.8691 23.7852C25.709 23.7266 25.5234 23.6973 25.3125 23.6973C25.1484 23.6973 24.9922 23.7168 24.8438 23.7559C24.6992 23.7949 24.5664 23.8516 24.4453 23.9258C24.3438 23.9844 24.248 24.0547 24.1582 24.1367C24.0723 24.2188 23.9961 24.3105 23.9297 24.4121V29H22.5293V20H23.9297V23.5625ZM32.5488 21.1133V22.6602H34.9336V23.709H32.5488V26.7383C32.5488 26.9727 32.5762 27.1699 32.6309 27.3301C32.6895 27.4863 32.7695 27.6094 32.8711 27.6992C32.9727 27.793 33.0938 27.8594 33.2344 27.8984C33.375 27.9375 33.5293 27.957 33.6973 27.957C33.8184 27.957 33.9434 27.9512 34.0723 27.9395C34.2012 27.9277 34.3262 27.9121 34.4473 27.8926C34.5645 27.877 34.6738 27.8594 34.7754 27.8398C34.8809 27.8164 34.9688 27.7969 35.0391 27.7812L35.1914 28.748C35.0898 28.8105 34.9668 28.8652 34.8223 28.9121C34.6816 28.9551 34.5293 28.9922 34.3652 29.0234C34.2012 29.0547 34.0293 29.0781 33.8496 29.0938C33.6738 29.1133 33.498 29.123 33.3223 29.123C33.002 29.123 32.707 29.0801 32.4375 28.9941C32.1719 28.9043 31.9434 28.7656 31.752 28.5781C31.5605 28.3945 31.4102 28.1582 31.3008 27.8691C31.1953 27.5801 31.1426 27.2324 31.1426 26.8262V23.709H29.6074V22.6602H31.1426V21.1133H32.5488ZM44.9473 22.6602L44.9883 23.3574C45.1094 23.1035 45.2754 22.9043 45.4863 22.7598C45.7012 22.6152 45.959 22.543 46.2598 22.543C46.416 22.543 46.5566 22.5605 46.6816 22.5957C46.8066 22.6309 46.9141 22.6855 47.0039 22.7598C47.0742 22.8145 47.1367 22.8809 47.1914 22.959C47.2461 23.0332 47.293 23.1191 47.332 23.2168C47.3867 23.127 47.4492 23.043 47.5195 22.9648C47.5898 22.8867 47.666 22.8203 47.748 22.7656C47.8535 22.6953 47.9707 22.6406 48.0996 22.6016C48.2324 22.5625 48.377 22.543 48.5332 22.543C48.7363 22.543 48.9219 22.5781 49.0898 22.6484C49.2617 22.7148 49.4102 22.8184 49.5352 22.959C49.6602 23.1074 49.7559 23.3008 49.8223 23.5391C49.8926 23.7734 49.9277 24.0566 49.9277 24.3887V29H48.6387V24.377C48.6387 24.252 48.625 24.1465 48.5977 24.0605C48.5703 23.9707 48.5312 23.8984 48.4805 23.8438C48.4297 23.793 48.3672 23.7559 48.293 23.7324C48.2227 23.709 48.1445 23.6973 48.0586 23.6973C47.9688 23.6973 47.8906 23.709 47.8242 23.7324C47.7578 23.7559 47.6992 23.7891 47.6484 23.832C47.6016 23.8711 47.5625 23.918 47.5312 23.9727C47.5 24.0234 47.4766 24.082 47.4609 24.1484C47.4609 24.1641 47.4609 24.1836 47.4609 24.207C47.4609 24.2266 47.4609 24.2559 47.4609 24.2949V29H46.1953V24.3711C46.1953 24.2461 46.1816 24.1406 46.1543 24.0547C46.1309 23.9648 46.0938 23.8945 46.043 23.8438C45.9922 23.793 45.9316 23.7559 45.8613 23.7324C45.7949 23.709 45.7188 23.6973 45.6328 23.6973C45.5391 23.6973 45.4551 23.7109 45.3809 23.7383C45.3105 23.7617 45.25 23.7988 45.1992 23.8496C45.1602 23.8848 45.125 23.9258 45.0938 23.9727C45.0664 24.0195 45.041 24.0723 45.0176 24.1309V29H43.7285V22.6602H44.9473ZM51.0996 25.7715C51.0996 25.3105 51.166 24.8848 51.2988 24.4941C51.4316 24.0996 51.625 23.7578 51.8789 23.4688C52.1289 23.1797 52.4355 22.9531 52.7988 22.7891C53.1621 22.625 53.5762 22.543 54.041 22.543C54.5059 22.543 54.9199 22.625 55.2832 22.7891C55.6504 22.9531 55.9609 23.1797 56.2148 23.4688C56.4648 23.7578 56.6562 24.0996 56.7891 24.4941C56.9219 24.8848 56.9883 25.3105 56.9883 25.7715V25.8945C56.9883 26.3594 56.9219 26.7871 56.7891 27.1777C56.6562 27.5684 56.4648 27.9082 56.2148 28.1973C55.9648 28.4863 55.6562 28.7129 55.2891 28.877C54.9258 29.041 54.5137 29.123 54.0527 29.123C53.5879 29.123 53.1719 29.041 52.8047 28.877C52.4375 28.7129 52.1289 28.4863 51.8789 28.1973C51.625 27.9082 51.4316 27.5684 51.2988 27.1777C51.166 26.7871 51.0996 26.3594 51.0996 25.8945V25.7715ZM52.5 25.8945C52.5 26.1797 52.5293 26.4492 52.5879 26.7031C52.6504 26.957 52.7461 27.1797 52.875 27.3711C53 27.5625 53.1602 27.7148 53.3555 27.8281C53.5508 27.9375 53.7832 27.9922 54.0527 27.9922C54.3145 27.9922 54.543 27.9375 54.7383 27.8281C54.9336 27.7148 55.0938 27.5625 55.2188 27.3711C55.3438 27.1797 55.4355 26.957 55.4941 26.7031C55.5566 26.4492 55.5879 26.1797 55.5879 25.8945V25.7715C55.5879 25.4941 55.5566 25.2285 55.4941 24.9746C55.4316 24.7207 55.3398 24.498 55.2188 24.3066C55.0898 24.1152 54.9277 23.9629 54.7324 23.8496C54.541 23.7363 54.3105 23.6797 54.041 23.6797C53.7754 23.6797 53.5449 23.7363 53.3496 23.8496C53.1582 23.9629 53 24.1152 52.875 24.3066C52.7461 24.498 52.6504 24.7207 52.5879 24.9746C52.5293 25.2285 52.5 25.4941 52.5 25.7715V25.8945ZM58.377 25.7832C58.377 25.3027 58.4336 24.8652 58.5469 24.4707C58.6641 24.0723 58.832 23.7305 59.0508 23.4453C59.2656 23.1602 59.5273 22.9395 59.8359 22.7832C60.1484 22.623 60.5 22.543 60.8906 22.543C61.2422 22.543 61.5488 22.6055 61.8105 22.7305C62.0762 22.8516 62.3105 23.0254 62.5137 23.252V20H63.9141V29H62.6426L62.5781 28.3379C62.375 28.5879 62.1328 28.7812 61.8516 28.918C61.5703 29.0508 61.2461 29.1172 60.8789 29.1172C60.4922 29.1172 60.1445 29.0371 59.8359 28.877C59.5273 28.7129 59.2656 28.4863 59.0508 28.1973C58.8359 27.9121 58.6699 27.5742 58.5527 27.1836C58.4355 26.7891 58.377 26.3633 58.377 25.9062V25.7832ZM59.7773 25.9062C59.7773 26.1875 59.8047 26.4531 59.8594 26.7031C59.9141 26.9531 60 27.1699 60.1172 27.3535C60.2344 27.5449 60.3848 27.6953 60.5684 27.8047C60.752 27.9102 60.9727 27.9629 61.2305 27.9629C61.5469 27.9629 61.8086 27.8945 62.0156 27.7578C62.2227 27.6172 62.3887 27.4277 62.5137 27.1895V24.4648C62.3887 24.2305 62.2227 24.0449 62.0156 23.9082C61.8125 23.7676 61.5547 23.6973 61.2422 23.6973C60.9805 23.6973 60.7559 23.752 60.5684 23.8613C60.3848 23.9707 60.2363 24.1211 60.123 24.3125C60.002 24.5039 59.9141 24.7266 59.8594 24.9805C59.8047 25.2305 59.7773 25.498 59.7773 25.7832V25.9062ZM68.7305 29.1172C68.2617 29.1172 67.832 29.0391 67.4414 28.8828C67.0547 28.7266 66.7227 28.5098 66.4453 28.2324C66.168 27.959 65.9531 27.6367 65.8008 27.2656C65.6523 26.8906 65.5781 26.4863 65.5781 26.0527V25.8125C65.5781 25.3164 65.6562 24.8672 65.8125 24.4648C65.9688 24.0625 66.1836 23.7188 66.457 23.4336C66.7305 23.1484 67.0469 22.9297 67.4062 22.7773C67.7695 22.6211 68.1562 22.543 68.5664 22.543C69.0234 22.543 69.4277 22.6211 69.7793 22.7773C70.1309 22.9297 70.4258 23.1426 70.6641 23.416C70.9023 23.6934 71.082 24.0234 71.2031 24.4062C71.3242 24.7891 71.3848 25.207 71.3848 25.6602V26.2637H66.9902V26.293C67.0332 26.5703 67.0996 26.8027 67.1895 26.9902C67.2793 27.1777 67.4023 27.3457 67.5586 27.4941C67.7148 27.6504 67.8984 27.7715 68.1094 27.8574C68.3242 27.9434 68.5586 27.9863 68.8125 27.9863C69.1602 27.9863 69.4844 27.9199 69.7852 27.7871C70.0859 27.6504 70.334 27.457 70.5293 27.207L71.2793 27.9336C71.0684 28.2383 70.7441 28.5117 70.3066 28.7539C69.873 28.9961 69.3477 29.1172 68.7305 29.1172ZM68.5605 23.6797C68.3613 23.6797 68.1758 23.7168 68.0039 23.791C67.8359 23.8613 67.6855 23.9629 67.5527 24.0957C67.4199 24.2324 67.3086 24.3965 67.2188 24.5879C67.1289 24.7793 67.0625 24.9961 67.0195 25.2383H70.002V25.1445C70.002 24.9609 69.9688 24.7793 69.9023 24.5996C69.8359 24.416 69.7422 24.2559 69.6211 24.1191C69.5039 23.9863 69.3555 23.8809 69.1758 23.8027C69 23.7207 68.7949 23.6797 68.5605 23.6797Z" fill="#F9F9F9"/>
<g opacity="0.3">
<path d="M75.2557 27C82.4857 34.7587 93.5717 52.059 80.0757 59.1905C63.2057 68.1048 80.5577 40.8667 90.1977 45.3238C99.8377 49.781 95.0177 74.0476 75.2557 79" stroke="#F9F9F9"/>
<path d="M79 72.5C75.8333 75.1667 70.9 80.5 76.5 80.5C82.1 80.5 85.8333 79.5 87 79H75.5" stroke="#F9F9F9" stroke-linejoin="round"/>
</g>
</svg>
