<svg width="96" height="81" viewBox="0 0 96 81" fill="none" xmlns="http://www.w3.org/2000/svg">
<path opacity="0.3" d="M5.05078 11.2832C5.05078 11.1738 5.02539 11.0762 4.97461 10.9902C4.92773 10.9043 4.84766 10.8223 4.73438 10.7441C4.61328 10.6738 4.45508 10.6074 4.25977 10.5449C4.06445 10.4824 3.82031 10.4238 3.52734 10.3691C3.16016 10.2949 2.82422 10.2031 2.51953 10.0938C2.21875 9.98438 1.95898 9.85156 1.74023 9.69531C1.52539 9.54688 1.35742 9.37109 1.23633 9.16797C1.11523 8.96484 1.05469 8.72852 1.05469 8.45898C1.05469 8.20117 1.11523 7.95703 1.23633 7.72656C1.36133 7.49219 1.53906 7.28711 1.76953 7.11133C1.99609 6.93555 2.26953 6.79688 2.58984 6.69531C2.91406 6.59375 3.27344 6.54297 3.66797 6.54297C4.08984 6.54297 4.46875 6.5957 4.80469 6.70117C5.14062 6.80273 5.42578 6.94336 5.66016 7.12305C5.89062 7.30273 6.06836 7.51562 6.19336 7.76172C6.31836 8.00781 6.38086 8.27344 6.38086 8.55859H4.98047C4.98047 8.44141 4.95508 8.33008 4.9043 8.22461C4.85742 8.11523 4.78711 8.01758 4.69336 7.93164C4.58398 7.83008 4.44336 7.75 4.27148 7.69141C4.09961 7.62891 3.89844 7.59766 3.66797 7.59766C3.45703 7.59766 3.27148 7.62109 3.11133 7.66797C2.95508 7.71094 2.82617 7.77148 2.72461 7.84961C2.62305 7.91992 2.54688 8.00391 2.49609 8.10156C2.44531 8.19531 2.41992 8.29492 2.41992 8.40039C2.41992 8.50977 2.44141 8.60938 2.48438 8.69922C2.52734 8.78516 2.60352 8.86133 2.71289 8.92773C2.81445 8.99805 2.95508 9.0625 3.13477 9.12109C3.31836 9.17969 3.54883 9.23242 3.82617 9.2793C4.21289 9.34961 4.56641 9.43555 4.88672 9.53711C5.20703 9.63867 5.48047 9.76367 5.70703 9.91211C5.93359 10.0684 6.10938 10.252 6.23438 10.4629C6.35938 10.6738 6.42188 10.9238 6.42188 11.2129C6.42188 11.4941 6.35547 11.752 6.22266 11.9863C6.09375 12.2207 5.91016 12.4219 5.67188 12.5898C5.42969 12.7578 5.14062 12.8887 4.80469 12.9824C4.46875 13.0762 4.0957 13.123 3.68555 13.123C3.22852 13.123 2.82227 13.0625 2.4668 12.9414C2.11523 12.8203 1.82031 12.6602 1.58203 12.4609C1.33984 12.2656 1.15625 12.041 1.03125 11.7871C0.90625 11.5332 0.84375 11.2754 0.84375 11.0137H2.20312C2.21484 11.209 2.26562 11.375 2.35547 11.5117C2.44922 11.6445 2.56641 11.752 2.70703 11.834C2.84375 11.9199 3 11.9824 3.17578 12.0215C3.35156 12.0566 3.5293 12.0742 3.70898 12.0742C3.95117 12.0742 4.16211 12.0488 4.3418 11.998C4.52539 11.9473 4.67188 11.8789 4.78125 11.793C4.87109 11.7227 4.9375 11.6465 4.98047 11.5645C5.02734 11.4785 5.05078 11.3848 5.05078 11.2832ZM8.64258 13L7.41797 6.66016H8.68359L9.26953 10.5449L9.36914 11.2773L9.49805 10.5449L10.3242 6.66016H11.2441L12.0703 10.5332L12.2051 11.3008L12.3164 10.5273L12.8848 6.66016H14.1562L12.9316 13H11.7422L10.9219 9.40234L10.7754 8.61719L10.6348 9.40234L9.83203 13H8.64258ZM15.6445 6.66016H19.0078V11.8398H20.8711V13H15.6445V11.8398H17.5957V7.82617H15.6445V6.66016ZM17.4668 5.01953C17.4668 4.90625 17.4863 4.80273 17.5254 4.70898C17.5645 4.61133 17.6211 4.52734 17.6953 4.45703C17.7656 4.39062 17.8496 4.33984 17.9473 4.30469C18.0488 4.26562 18.1621 4.24609 18.2871 4.24609C18.498 4.24609 18.668 4.30078 18.7969 4.41016C18.9297 4.51562 19.0059 4.65234 19.0254 4.82031C19.0527 4.99219 19.0234 5.14258 18.9375 5.27148C18.8516 5.39648 18.7266 5.48047 18.5625 5.52344C18.4805 5.59766 18.3828 5.64648 18.2695 5.66992C18.1562 5.69336 18.0312 5.68359 17.8945 5.64062C17.7539 5.59766 17.6465 5.52148 17.5723 5.41211C17.502 5.29883 17.4668 5.16797 17.4668 5.01953ZM25.3418 5.11328V6.66016H27.7266V7.70898H25.3418V10.7383C25.3418 10.9727 25.3691 11.1699 25.4238 11.3301C25.4824 11.4863 25.5625 11.6094 25.6641 11.6992C25.7656 11.793 25.8867 11.8594 26.0273 11.8984C26.168 11.9375 26.3223 11.957 26.4902 11.957C26.6113 11.957 26.7363 11.9512 26.8652 11.9395C26.9941 11.9277 27.1191 11.9121 27.2402 11.8926C27.3574 11.877 27.4668 11.8594 27.5684 11.8398C27.6738 11.8164 27.7617 11.7969 27.832 11.7812L27.9844 12.748C27.8828 12.8105 27.7598 12.8652 27.6152 12.9121C27.4746 12.9551 27.3223 12.9922 27.1582 13.0234C26.9941 13.0547 26.8223 13.0781 26.6426 13.0938C26.4668 13.1133 26.291 13.123 26.1152 13.123C25.7949 13.123 25.5 13.0801 25.2305 12.9941C24.9648 12.9043 24.7363 12.7656 24.5449 12.5781C24.3535 12.3945 24.2031 12.1582 24.0938 11.8691C23.9883 11.5801 23.9355 11.2324 23.9355 10.8262V7.70898H22.4004V6.66016H23.9355V5.11328H25.3418ZM32.4961 11.9922C32.6719 11.9922 32.8398 11.9668 33 11.916C33.1641 11.8613 33.3086 11.7852 33.4336 11.6875C33.5547 11.5898 33.6504 11.4746 33.7207 11.3418C33.7949 11.209 33.832 11.0625 33.832 10.9023H35.1504C35.1543 11.2109 35.084 11.502 34.9395 11.7754C34.7988 12.0449 34.6074 12.2773 34.3652 12.4727C34.1191 12.6758 33.8359 12.8359 33.5156 12.9531C33.1992 13.0664 32.8652 13.123 32.5137 13.123C32.0254 13.123 31.5977 13.0391 31.2305 12.8711C30.8672 12.6992 30.5645 12.4688 30.3223 12.1797C30.0762 11.8906 29.8906 11.5547 29.7656 11.1719C29.6406 10.7852 29.5781 10.373 29.5781 9.93555V9.73047C29.5781 9.29688 29.6387 8.88672 29.7598 8.5C29.8848 8.11328 30.0703 7.77539 30.3164 7.48633C30.5625 7.19727 30.8672 6.96875 31.2305 6.80078C31.5977 6.62891 32.0234 6.54297 32.5078 6.54297C32.8906 6.54297 33.2441 6.60156 33.5684 6.71875C33.8965 6.83594 34.1777 7 34.4121 7.21094C34.6465 7.42188 34.8281 7.67383 34.957 7.9668C35.0898 8.25977 35.1543 8.58203 35.1504 8.93359H33.832C33.832 8.76172 33.7988 8.59961 33.7324 8.44727C33.6699 8.29492 33.5801 8.16211 33.4629 8.04883C33.3418 7.93555 33.1973 7.8457 33.0293 7.7793C32.8652 7.71289 32.6875 7.67969 32.4961 7.67969C32.2031 7.67969 31.959 7.74023 31.7637 7.86133C31.5723 7.97852 31.4199 8.13281 31.3066 8.32422C31.1855 8.51562 31.0996 8.73438 31.0488 8.98047C31.002 9.22656 30.9785 9.47656 30.9785 9.73047V9.93555C30.9785 10.1934 31.002 10.4473 31.0488 10.6973C31.0996 10.9434 31.1836 11.1602 31.3008 11.3477C31.4141 11.543 31.5684 11.6992 31.7637 11.8164C31.959 11.9336 32.2031 11.9922 32.4961 11.9922ZM38.3438 7.5625C38.4258 7.4375 38.5176 7.32227 38.6191 7.2168C38.7207 7.11133 38.8281 7.01953 38.9414 6.94141C39.1172 6.8125 39.3105 6.71484 39.5215 6.64844C39.7363 6.57812 39.9629 6.54297 40.2012 6.54297C40.5332 6.54297 40.8359 6.5918 41.1094 6.68945C41.3867 6.78711 41.623 6.93945 41.8184 7.14648C42.0137 7.35352 42.1641 7.61914 42.2695 7.94336C42.3789 8.26367 42.4336 8.64844 42.4336 9.09766V13H41.0332V9.08594C41.0332 8.85156 41.0039 8.64648 40.9453 8.4707C40.8906 8.29492 40.8086 8.15234 40.6992 8.04297C40.5859 7.92578 40.4473 7.83984 40.2832 7.78516C40.123 7.72656 39.9375 7.69727 39.7266 7.69727C39.5625 7.69727 39.4062 7.7168 39.2578 7.75586C39.1133 7.79492 38.9805 7.85156 38.8594 7.92578C38.7578 7.98438 38.6621 8.05469 38.5723 8.13672C38.4863 8.21875 38.4102 8.31055 38.3438 8.41211V13H36.9434V4H38.3438V7.5625ZM54.1699 5.11328V6.66016H56.5547V7.70898H54.1699V10.7383C54.1699 10.9727 54.1973 11.1699 54.252 11.3301C54.3105 11.4863 54.3906 11.6094 54.4922 11.6992C54.5938 11.793 54.7148 11.8594 54.8555 11.8984C54.9961 11.9375 55.1504 11.957 55.3184 11.957C55.4395 11.957 55.5645 11.9512 55.6934 11.9395C55.8223 11.9277 55.9473 11.9121 56.0684 11.8926C56.1855 11.877 56.2949 11.8594 56.3965 11.8398C56.502 11.8164 56.5898 11.7969 56.6602 11.7812L56.8125 12.748C56.7109 12.8105 56.5879 12.8652 56.4434 12.9121C56.3027 12.9551 56.1504 12.9922 55.9863 13.0234C55.8223 13.0547 55.6504 13.0781 55.4707 13.0938C55.2949 13.1133 55.1191 13.123 54.9434 13.123C54.623 13.123 54.3281 13.0801 54.0586 12.9941C53.793 12.9043 53.5645 12.7656 53.373 12.5781C53.1816 12.3945 53.0312 12.1582 52.9219 11.8691C52.8164 11.5801 52.7637 11.2324 52.7637 10.8262V7.70898H51.2285V6.66016H52.7637V5.11328H54.1699ZM58.3066 9.77148C58.3066 9.31055 58.373 8.88477 58.5059 8.49414C58.6387 8.09961 58.832 7.75781 59.0859 7.46875C59.3359 7.17969 59.6426 6.95312 60.0059 6.78906C60.3691 6.625 60.7832 6.54297 61.248 6.54297C61.7129 6.54297 62.127 6.625 62.4902 6.78906C62.8574 6.95312 63.168 7.17969 63.4219 7.46875C63.6719 7.75781 63.8633 8.09961 63.9961 8.49414C64.1289 8.88477 64.1953 9.31055 64.1953 9.77148V9.89453C64.1953 10.3594 64.1289 10.7871 63.9961 11.1777C63.8633 11.5684 63.6719 11.9082 63.4219 12.1973C63.1719 12.4863 62.8633 12.7129 62.4961 12.877C62.1328 13.041 61.7207 13.123 61.2598 13.123C60.7949 13.123 60.3789 13.041 60.0117 12.877C59.6445 12.7129 59.3359 12.4863 59.0859 12.1973C58.832 11.9082 58.6387 11.5684 58.5059 11.1777C58.373 10.7871 58.3066 10.3594 58.3066 9.89453V9.77148ZM59.707 9.89453C59.707 10.1797 59.7363 10.4492 59.7949 10.7031C59.8574 10.957 59.9531 11.1797 60.082 11.3711C60.207 11.5625 60.3672 11.7148 60.5625 11.8281C60.7578 11.9375 60.9902 11.9922 61.2598 11.9922C61.5215 11.9922 61.75 11.9375 61.9453 11.8281C62.1406 11.7148 62.3008 11.5625 62.4258 11.3711C62.5508 11.1797 62.6426 10.957 62.7012 10.7031C62.7637 10.4492 62.7949 10.1797 62.7949 9.89453V9.77148C62.7949 9.49414 62.7637 9.22852 62.7012 8.97461C62.6387 8.7207 62.5469 8.49805 62.4258 8.30664C62.2969 8.11523 62.1348 7.96289 61.9395 7.84961C61.748 7.73633 61.5176 7.67969 61.248 7.67969C60.9824 7.67969 60.752 7.73633 60.5566 7.84961C60.3652 7.96289 60.207 8.11523 60.082 8.30664C59.9531 8.49805 59.8574 8.7207 59.7949 8.97461C59.7363 9.22852 59.707 9.49414 59.707 9.77148V9.89453ZM0.720703 25.7832C0.720703 25.3027 0.777344 24.8652 0.890625 24.4707C1.00781 24.0723 1.17578 23.7305 1.39453 23.4453C1.60938 23.1602 1.87109 22.9395 2.17969 22.7832C2.49219 22.623 2.84375 22.543 3.23438 22.543C3.58594 22.543 3.89258 22.6055 4.1543 22.7305C4.41992 22.8516 4.6543 23.0254 4.85742 23.252V20H6.25781V29H4.98633L4.92188 28.3379C4.71875 28.5879 4.47656 28.7812 4.19531 28.918C3.91406 29.0508 3.58984 29.1172 3.22266 29.1172C2.83594 29.1172 2.48828 29.0371 2.17969 28.877C1.87109 28.7129 1.60938 28.4863 1.39453 28.1973C1.17969 27.9121 1.01367 27.5742 0.896484 27.1836C0.779297 26.7891 0.720703 26.3633 0.720703 25.9062V25.7832ZM2.12109 25.9062C2.12109 26.1875 2.14844 26.4531 2.20312 26.7031C2.25781 26.9531 2.34375 27.1699 2.46094 27.3535C2.57812 27.5449 2.72852 27.6953 2.91211 27.8047C3.0957 27.9102 3.31641 27.9629 3.57422 27.9629C3.89062 27.9629 4.15234 27.8945 4.35938 27.7578C4.56641 27.6172 4.73242 27.4277 4.85742 27.1895V24.4648C4.73242 24.2305 4.56641 24.0449 4.35938 23.9082C4.15625 23.7676 3.89844 23.6973 3.58594 23.6973C3.32422 23.6973 3.09961 23.752 2.91211 23.8613C2.72852 23.9707 2.58008 24.1211 2.4668 24.3125C2.3457 24.5039 2.25781 24.7266 2.20312 24.9805C2.14844 25.2305 2.12109 25.498 2.12109 25.7832V25.9062ZM12.1641 29C12.1211 28.9219 12.0859 28.8281 12.0586 28.7188C12.0352 28.6055 12.0137 28.4883 11.9941 28.3672C11.8965 28.4688 11.7852 28.5664 11.6602 28.6602C11.5391 28.75 11.4023 28.8281 11.25 28.8945C11.0977 28.9648 10.9336 29.0195 10.7578 29.0586C10.582 29.0977 10.3926 29.1172 10.1895 29.1172C9.86133 29.1172 9.56055 29.0703 9.28711 28.9766C9.01758 28.8789 8.78711 28.7461 8.5957 28.5781C8.40039 28.4141 8.24805 28.2168 8.13867 27.9863C8.0332 27.752 7.98047 27.5 7.98047 27.2305C7.98047 26.8828 8.04883 26.5762 8.18555 26.3105C8.32617 26.041 8.5293 25.8184 8.79492 25.6426C9.04102 25.4785 9.34375 25.3535 9.70312 25.2676C10.0664 25.1816 10.4766 25.1387 10.9336 25.1387H11.9531V24.7109C11.9531 24.5469 11.9238 24.3984 11.8652 24.2656C11.8105 24.1328 11.7305 24.0176 11.625 23.9199C11.5117 23.8223 11.373 23.748 11.209 23.6973C11.0488 23.6426 10.8633 23.6152 10.6523 23.6152C10.4609 23.6152 10.293 23.6387 10.1484 23.6855C10.0078 23.7324 9.89062 23.7969 9.79688 23.8789C9.70312 23.9531 9.63281 24.0449 9.58594 24.1543C9.54297 24.2598 9.52148 24.373 9.52148 24.4941H8.11523C8.11914 24.2402 8.17969 23.9961 8.29688 23.7617C8.41406 23.5273 8.58594 23.3203 8.8125 23.1406C9.03125 22.957 9.30078 22.8125 9.62109 22.707C9.94531 22.5977 10.3145 22.543 10.7285 22.543C11.0996 22.543 11.4453 22.5898 11.7656 22.6836C12.0898 22.7734 12.3691 22.9082 12.6035 23.0879C12.8379 23.2676 13.0215 23.4961 13.1543 23.7734C13.2871 24.0469 13.3535 24.3633 13.3535 24.7227V27.541C13.3535 27.8262 13.373 28.084 13.4121 28.3145C13.4551 28.541 13.5156 28.7363 13.5938 28.9004V29H12.1641ZM10.459 27.9922C10.6426 27.9922 10.8125 27.9688 10.9688 27.9219C11.1289 27.875 11.2734 27.8145 11.4023 27.7402C11.5312 27.666 11.6426 27.582 11.7363 27.4883C11.8301 27.3945 11.9023 27.2969 11.9531 27.1953V26.0234H11.0508C10.7461 26.0234 10.4824 26.0527 10.2598 26.1113C10.0371 26.166 9.85938 26.2461 9.72656 26.3516C9.60938 26.4414 9.52148 26.5488 9.46289 26.6738C9.4082 26.7988 9.38086 26.9395 9.38086 27.0957C9.38086 27.2246 9.4043 27.3457 9.45117 27.459C9.49805 27.5684 9.56641 27.6621 9.65625 27.7402C9.74609 27.8184 9.85742 27.8809 9.99023 27.9277C10.123 27.9707 10.2793 27.9922 10.459 27.9922ZM19.7051 22.543C19.9316 22.543 20.1504 22.5586 20.3613 22.5898C20.5762 22.6211 20.7441 22.6582 20.8652 22.7012L20.666 24.084C20.4512 24.0371 20.2383 24.002 20.0273 23.9785C19.8203 23.9551 19.6133 23.9434 19.4062 23.9434C19.1719 23.9434 18.9609 23.9668 18.7734 24.0137C18.5859 24.0605 18.4199 24.1328 18.2754 24.2305C18.1191 24.3242 17.9863 24.4434 17.877 24.5879C17.7676 24.7324 17.6758 24.8984 17.6016 25.0859V29H16.2012V22.6602H17.5137L17.5723 23.5391L17.5781 23.6855C17.8359 23.3301 18.1445 23.0508 18.5039 22.8477C18.8672 22.6445 19.2676 22.543 19.7051 22.543ZM24.709 26.2402L23.9473 26.9609V29H22.541V20H23.9473V25.2969L24.5273 24.6523L26.4199 22.6602H28.1074L25.6406 25.3027L28.4648 29H26.7305L24.709 26.2402ZM37.7402 22.6602L37.7812 23.3574C37.9023 23.1035 38.0684 22.9043 38.2793 22.7598C38.4941 22.6152 38.752 22.543 39.0527 22.543C39.209 22.543 39.3496 22.5605 39.4746 22.5957C39.5996 22.6309 39.707 22.6855 39.7969 22.7598C39.8672 22.8145 39.9297 22.8809 39.9844 22.959C40.0391 23.0332 40.0859 23.1191 40.125 23.2168C40.1797 23.127 40.2422 23.043 40.3125 22.9648C40.3828 22.8867 40.459 22.8203 40.541 22.7656C40.6465 22.6953 40.7637 22.6406 40.8926 22.6016C41.0254 22.5625 41.1699 22.543 41.3262 22.543C41.5293 22.543 41.7148 22.5781 41.8828 22.6484C42.0547 22.7148 42.2031 22.8184 42.3281 22.959C42.4531 23.1074 42.5488 23.3008 42.6152 23.5391C42.6855 23.7734 42.7207 24.0566 42.7207 24.3887V29H41.4316V24.377C41.4316 24.252 41.418 24.1465 41.3906 24.0605C41.3633 23.9707 41.3242 23.8984 41.2734 23.8438C41.2227 23.793 41.1602 23.7559 41.0859 23.7324C41.0156 23.709 40.9375 23.6973 40.8516 23.6973C40.7617 23.6973 40.6836 23.709 40.6172 23.7324C40.5508 23.7559 40.4922 23.7891 40.4414 23.832C40.3945 23.8711 40.3555 23.918 40.3242 23.9727C40.293 24.0234 40.2695 24.082 40.2539 24.1484C40.2539 24.1641 40.2539 24.1836 40.2539 24.207C40.2539 24.2266 40.2539 24.2559 40.2539 24.2949V29H38.9883V24.3711C38.9883 24.2461 38.9746 24.1406 38.9473 24.0547C38.9238 23.9648 38.8867 23.8945 38.8359 23.8438C38.7852 23.793 38.7246 23.7559 38.6543 23.7324C38.5879 23.709 38.5117 23.6973 38.4258 23.6973C38.332 23.6973 38.248 23.7109 38.1738 23.7383C38.1035 23.7617 38.043 23.7988 37.9922 23.8496C37.9531 23.8848 37.918 23.9258 37.8867 23.9727C37.8594 24.0195 37.834 24.0723 37.8105 24.1309V29H36.5215V22.6602H37.7402ZM43.8926 25.7715C43.8926 25.3105 43.959 24.8848 44.0918 24.4941C44.2246 24.0996 44.418 23.7578 44.6719 23.4688C44.9219 23.1797 45.2285 22.9531 45.5918 22.7891C45.9551 22.625 46.3691 22.543 46.834 22.543C47.2988 22.543 47.7129 22.625 48.0762 22.7891C48.4434 22.9531 48.7539 23.1797 49.0078 23.4688C49.2578 23.7578 49.4492 24.0996 49.582 24.4941C49.7148 24.8848 49.7812 25.3105 49.7812 25.7715V25.8945C49.7812 26.3594 49.7148 26.7871 49.582 27.1777C49.4492 27.5684 49.2578 27.9082 49.0078 28.1973C48.7578 28.4863 48.4492 28.7129 48.082 28.877C47.7188 29.041 47.3066 29.123 46.8457 29.123C46.3809 29.123 45.9648 29.041 45.5977 28.877C45.2305 28.7129 44.9219 28.4863 44.6719 28.1973C44.418 27.9082 44.2246 27.5684 44.0918 27.1777C43.959 26.7871 43.8926 26.3594 43.8926 25.8945V25.7715ZM45.293 25.8945C45.293 26.1797 45.3223 26.4492 45.3809 26.7031C45.4434 26.957 45.5391 27.1797 45.668 27.3711C45.793 27.5625 45.9531 27.7148 46.1484 27.8281C46.3438 27.9375 46.5762 27.9922 46.8457 27.9922C47.1074 27.9922 47.3359 27.9375 47.5312 27.8281C47.7266 27.7148 47.8867 27.5625 48.0117 27.3711C48.1367 27.1797 48.2285 26.957 48.2871 26.7031C48.3496 26.4492 48.3809 26.1797 48.3809 25.8945V25.7715C48.3809 25.4941 48.3496 25.2285 48.2871 24.9746C48.2246 24.7207 48.1328 24.498 48.0117 24.3066C47.8828 24.1152 47.7207 23.9629 47.5254 23.8496C47.334 23.7363 47.1035 23.6797 46.834 23.6797C46.5684 23.6797 46.3379 23.7363 46.1426 23.8496C45.9512 23.9629 45.793 24.1152 45.668 24.3066C45.5391 24.498 45.4434 24.7207 45.3809 24.9746C45.3223 25.2285 45.293 25.4941 45.293 25.7715V25.8945ZM51.1699 25.7832C51.1699 25.3027 51.2266 24.8652 51.3398 24.4707C51.457 24.0723 51.625 23.7305 51.8438 23.4453C52.0586 23.1602 52.3203 22.9395 52.6289 22.7832C52.9414 22.623 53.293 22.543 53.6836 22.543C54.0352 22.543 54.3418 22.6055 54.6035 22.7305C54.8691 22.8516 55.1035 23.0254 55.3066 23.252V20H56.707V29H55.4355L55.3711 28.3379C55.168 28.5879 54.9258 28.7812 54.6445 28.918C54.3633 29.0508 54.0391 29.1172 53.6719 29.1172C53.2852 29.1172 52.9375 29.0371 52.6289 28.877C52.3203 28.7129 52.0586 28.4863 51.8438 28.1973C51.6289 27.9121 51.4629 27.5742 51.3457 27.1836C51.2285 26.7891 51.1699 26.3633 51.1699 25.9062V25.7832ZM52.5703 25.9062C52.5703 26.1875 52.5977 26.4531 52.6523 26.7031C52.707 26.9531 52.793 27.1699 52.9102 27.3535C53.0273 27.5449 53.1777 27.6953 53.3613 27.8047C53.5449 27.9102 53.7656 27.9629 54.0234 27.9629C54.3398 27.9629 54.6016 27.8945 54.8086 27.7578C55.0156 27.6172 55.1816 27.4277 55.3066 27.1895V24.4648C55.1816 24.2305 55.0156 24.0449 54.8086 23.9082C54.6055 23.7676 54.3477 23.6973 54.0352 23.6973C53.7734 23.6973 53.5488 23.752 53.3613 23.8613C53.1777 23.9707 53.0293 24.1211 52.916 24.3125C52.7949 24.5039 52.707 24.7266 52.6523 24.9805C52.5977 25.2305 52.5703 25.498 52.5703 25.7832V25.9062ZM61.5234 29.1172C61.0547 29.1172 60.625 29.0391 60.2344 28.8828C59.8477 28.7266 59.5156 28.5098 59.2383 28.2324C58.9609 27.959 58.7461 27.6367 58.5938 27.2656C58.4453 26.8906 58.3711 26.4863 58.3711 26.0527V25.8125C58.3711 25.3164 58.4492 24.8672 58.6055 24.4648C58.7617 24.0625 58.9766 23.7188 59.25 23.4336C59.5234 23.1484 59.8398 22.9297 60.1992 22.7773C60.5625 22.6211 60.9492 22.543 61.3594 22.543C61.8164 22.543 62.2207 22.6211 62.5723 22.7773C62.9238 22.9297 63.2188 23.1426 63.457 23.416C63.6953 23.6934 63.875 24.0234 63.9961 24.4062C64.1172 24.7891 64.1777 25.207 64.1777 25.6602V26.2637H59.7832V26.293C59.8262 26.5703 59.8926 26.8027 59.9824 26.9902C60.0723 27.1777 60.1953 27.3457 60.3516 27.4941C60.5078 27.6504 60.6914 27.7715 60.9023 27.8574C61.1172 27.9434 61.3516 27.9863 61.6055 27.9863C61.9531 27.9863 62.2773 27.9199 62.5781 27.7871C62.8789 27.6504 63.127 27.457 63.3223 27.207L64.0723 27.9336C63.8613 28.2383 63.5371 28.5117 63.0996 28.7539C62.666 28.9961 62.1406 29.1172 61.5234 29.1172ZM61.3535 23.6797C61.1543 23.6797 60.9688 23.7168 60.7969 23.791C60.6289 23.8613 60.4785 23.9629 60.3457 24.0957C60.2129 24.2324 60.1016 24.3965 60.0117 24.5879C59.9219 24.7793 59.8555 24.9961 59.8125 25.2383H62.7949V25.1445C62.7949 24.9609 62.7617 24.7793 62.6953 24.5996C62.6289 24.416 62.5352 24.2559 62.4141 24.1191C62.2969 23.9863 62.1484 23.8809 61.9688 23.8027C61.793 23.7207 61.5879 23.6797 61.3535 23.6797Z" fill="#222222"/>
<g opacity="0.3">
<path d="M75.2557 27C82.4857 34.7587 93.5717 52.059 80.0757 59.1905C63.2057 68.1048 80.5577 40.8667 90.1977 45.3238C99.8377 49.781 95.0177 74.0476 75.2557 79" stroke="#222222"/>
<path d="M79 72.5C75.8333 75.1667 70.9 80.5 76.5 80.5C82.1 80.5 85.8333 79.5 87 79H75.5" stroke="#222222" stroke-linejoin="round"/>
</g>
</svg>
